<svg width="19" height="15" viewBox="0 0 19 15" fill="none" xmlns="http://www.w3.org/2000/svg">
<path d="M18.6108 2.57584L7.42282 13.7639C7.32537 13.8616 7.20958 13.9392 7.08209 13.9922C6.9546 14.0451 6.81791 14.0724 6.67986 14.0724C6.54182 14.0724 6.40513 14.0451 6.27763 13.9922C6.15014 13.9392 6.03435 13.8616 5.93691 13.7639L1.04215 8.8691C0.944581 8.77154 0.867187 8.65571 0.814385 8.52823C0.761583 8.40075 0.734406 8.26413 0.734406 8.12615C0.734406 7.98817 0.761583 7.85154 0.814385 7.72406C0.867187 7.59659 0.944581 7.48076 1.04215 7.38319C1.13971 7.28563 1.25554 7.20823 1.38302 7.15543C1.51049 7.10263 1.64712 7.07545 1.7851 7.07545C1.92308 7.07545 2.05971 7.10263 2.18719 7.15543C2.31466 7.20823 2.43049 7.28563 2.52806 7.38319L6.68074 11.5359L17.1267 1.09168C17.3237 0.894633 17.591 0.783936 17.8696 0.783936C18.1483 0.783936 18.4155 0.894633 18.6126 1.09168C18.8096 1.28872 18.9203 1.55597 18.9203 1.83463C18.9203 2.11329 18.8096 2.38054 18.6126 2.57759L18.6108 2.57584Z" fill="#FAFAFA"/>
</svg>
